<?xml version="1.0" encoding="utf-8"?>
<!-- Generator: Adobe Illustrator 27.0.0, SVG Export Plug-In . SVG Version: 6.00 Build 0)  -->
<svg version="1.1" id="Calque_1" xmlns="http://www.w3.org/2000/svg" xmlns:xlink="http://www.w3.org/1999/xlink" x="0px" y="0px"
	 viewBox="0 0 141.73 113.39" style="enable-background:new 0 0 141.73 113.39;" xml:space="preserve">
<style type="text/css">
	.st0{stroke:#FFFFFF;stroke-width:2;stroke-miterlimit:10;}
</style>
<path class="st0" d="M59.98,45.68l8.37,45.26c0.36,1.33,3.53,1.33,3.95,0l8.56-45.26l12.14,0L78.76,95.7
	c-1.5,5.25-4.25,7.25-8.44,7.25c-3.95,0-7-1.75-8.5-7.25L48.3,45.68L59.98,45.68z"/>
<path class="st0" d="M63.41,22.82C59.64,6.67,48.94,4.26,42.9,4.26c-7.25,0-16.68,3.2-20.41,18.46L0.58,112.33h29.82l13.98-57.27
	H70.9L63.41,22.82z M48.64,45.68l-3.1-13.32c-0.48-2.08-1.36-2.99-2.64-2.99c-1.28,0-2.08,0.91-2.64,2.99l-17.23,70.59h-10.5
	L31.6,24.95c2-8.19,5.69-11.31,11.3-11.31c5.29,0,9.38,2.73,11.38,11.31l4.81,20.73L48.64,45.68z"/>
<path class="st0" d="M119.25,22.72C115.51,7.46,106.09,4.26,98.83,4.26c-6.04,0-16.75,2.41-20.52,18.57l-7.49,32.24h26.53
	l13.98,57.27h29.82L119.25,22.72z M118.36,102.55L101.14,32c-0.65-2.4-1.53-2.72-2.3-2.72c-0.72,0-1.74,0.28-2.3,2.71v0l-3.16,13.59
	H82.21l4.91-21.15c1.84-7.9,5.57-11.57,11.71-11.57c0,0,0,0,0,0c6.09,0,9.68,3.57,11.63,11.57l19.17,78.39h-11.22L118.36,102.55z"/>
</svg>
