<?xml version="1.0" encoding="utf-8"?>
<!-- Generator: Adobe Illustrator 27.0.0, SVG Export Plug-In . SVG Version: 6.00 Build 0)  -->
<svg version="1.1" id="Calque_1" xmlns="http://www.w3.org/2000/svg" xmlns:xlink="http://www.w3.org/1999/xlink" x="0px" y="0px"
	 viewBox="0 0 800 800" style="enable-background:new 0 0 800 800;" xml:space="preserve">
<style type="text/css">
	.st0{fill:#FE705A;}
</style>
<path class="st0" d="M666.36,258.33C662,261.72,585,305.1,585,401.58c0,111.59,97.98,151.06,100.91,152.04
	c-0.45,2.41-15.57,54.06-51.66,106.7c-32.18,46.32-65.79,92.56-116.93,92.56s-64.29-29.7-123.32-29.7
	c-57.52,0-77.98,30.68-124.75,30.68s-79.4-42.86-116.93-95.5c-43.46-61.81-78.58-157.83-78.58-248.97
	c0-146.18,95.04-223.7,188.58-223.7c49.7,0,91.13,32.63,122.34,32.63c29.7,0,76.02-34.59,132.57-34.59
	C538.69,183.74,615.68,185.7,666.36,258.33L666.36,258.33z M490.41,121.86c23.39-27.75,39.93-66.25,39.93-104.74
	c0-5.34-0.45-10.75-1.43-15.11C490.86,3.43,445.6,27.34,418.3,59c-21.43,24.36-41.43,62.86-41.43,101.89
	c0,5.87,0.98,11.73,1.43,13.61c2.41,0.45,6.32,0.98,10.23,0.98C422.66,175.47,465.6,152.61,490.41,121.86L490.41,121.86z"/>
</svg>
