<?xml version="1.0" encoding="utf-8"?>
<!-- Generator: Adobe Illustrator 27.0.0, SVG Export Plug-In . SVG Version: 6.00 Build 0)  -->
<svg version="1.1" id="Calque_1" xmlns="http://www.w3.org/2000/svg" xmlns:xlink="http://www.w3.org/1999/xlink" x="0px" y="0px"
	 viewBox="0 0 800 800" style="enable-background:new 0 0 800 800;" xml:space="preserve">
<style type="text/css">
	.st0{fill:#FE705A;}
</style>
<path class="st0" d="M533.21,462.82c-40.27-2.64-71.93-35.95-71.93-76.67c0-1.36,0.03-2.72,0.11-4.08v0.19
	c-0.08-1.28-0.13-2.77-0.13-4.29c0-40.64,31.71-73.85,71.74-76.27h0.21c40.21,2.19,71.98,35.31,71.98,75.87
	c0,1.65-0.05,3.28-0.16,4.9v-0.21c0.08,1.33,0.13,2.9,0.13,4.48c0,40.59-31.74,73.77-71.77,76.06h-0.21L533.21,462.82z
	 M267.62,462.82c-40.27-2.64-71.93-35.95-71.93-76.67c0-1.36,0.03-2.72,0.11-4.08v0.19c-0.08-1.28-0.13-2.77-0.13-4.29
	c0-40.64,31.71-73.85,71.74-76.27h0.21c40.21,2.19,71.98,35.31,71.98,75.87c0,1.65-0.05,3.28-0.16,4.9v-0.21
	c0.08,1.28,0.13,2.77,0.13,4.29c0,40.64-31.71,73.85-71.74,76.27L267.62,462.82L267.62,462.82z M677.15,97.78
	c-46.99-22.18-101.57-39.71-158.7-49.87l-3.97-0.59c-0.13-0.03-0.29-0.05-0.45-0.05c-0.93,0-1.73,0.51-2.16,1.25l0,0
	c-6.24,10.95-13.01,24.62-19.11,38.64l-1.15,2.96c-27.45-4.4-59.11-6.9-91.36-6.9s-63.91,2.51-94.79,7.33l3.44-0.45
	c-7.2-16.79-14.07-30.43-21.67-43.65l1.09,2.05c-0.45-0.77-1.28-1.25-2.21-1.25c-0.13,0-0.29,0-0.43,0.03h0.03
	C224.61,58.01,170,75.52,118.99,99.43l4.02-1.71c-0.45,0.19-0.83,0.51-1.07,0.91l0,0C45.89,206.32,0.38,340.31,0.38,484.94
	c0,24.17,1.28,48.02,3.76,71.53l-0.24-2.93c0.08,0.77,0.48,1.41,1.04,1.87l0,0c57.03,42.67,123.33,77.04,194.89,99.62l4.69,1.28
	c0.21,0.08,0.48,0.11,0.75,0.11c0.85,0,1.6-0.4,2.05-1.01l0,0c14.26-19.19,27.82-40.93,39.57-63.75l1.25-2.66
	c0.16-0.32,0.27-0.72,0.27-1.15c0-1.09-0.69-2-1.65-2.37h-0.03c-24.3-9.38-44.85-19.37-64.41-30.83l2.05,1.12
	c-0.77-0.45-1.28-1.28-1.28-2.21c0-0.83,0.4-1.57,1.01-2.03l0,0c4.18-3.14,8.39-6.4,12.39-9.7c0.43-0.35,0.99-0.56,1.57-0.56
	c0.37,0,0.72,0.08,1.01,0.21h-0.03c58.84,28.28,127.92,44.8,200.83,44.8s142.02-16.52,203.68-46.02l-2.85,1.23
	c0.32-0.16,0.67-0.24,1.07-0.24c0.59,0,1.15,0.21,1.57,0.56l0,0c4,3.3,8.18,6.61,12.42,9.73c0.61,0.48,1.01,1.23,1.01,2.05
	c0,0.93-0.51,1.73-1.23,2.19l0,0c-17.62,10.53-38.16,20.49-59.56,28.73l-2.8,0.96c-0.96,0.37-1.65,1.31-1.65,2.37
	c0,0.43,0.11,0.83,0.29,1.17v-0.03c13.35,25.58,26.89,47.3,41.87,67.9l-1.07-1.52c0.45,0.64,1.23,1.07,2.05,1.07
	c0.27,0,0.53-0.05,0.77-0.11h-0.03c76.35-23.77,142.79-58.15,201.63-102.12l-1.73,1.25c0.59-0.43,0.96-1.09,1.04-1.84l0,0
	c2.32-20.89,3.62-45.14,3.62-69.69c0-144.31-45.62-277.96-123.2-387.33l1.39,2.08c-0.21-0.43-0.59-0.77-1.01-0.96l0,0V97.78z"/>
</svg>
