<?xml version="1.0" encoding="utf-8"?>
<!-- Generator: Adobe Illustrator 27.0.0, SVG Export Plug-In . SVG Version: 6.00 Build 0)  -->
<svg version="1.1" id="Calque_1" xmlns="http://www.w3.org/2000/svg" xmlns:xlink="http://www.w3.org/1999/xlink" x="0px" y="0px"
	 viewBox="0 0 800 800" style="enable-background:new 0 0 800 800;" xml:space="preserve">
<style type="text/css">
	.st0{fill:#FE705A;}
</style>
<path class="st0" d="M357.88,374.66v-74.33h83.13v74.33H357.88z M441.01,117.65v76.87h-83.13v-76.87H441.01z M539.29,300.47v74.33
	h-83.13v-74.33H539.29z M342.75,209.76v75.6h-83.13v-75.6H342.75z M441.04,209.76v75.6h-83.15v-75.6H441.04z M779.84,340.09
	L796,351.29l-11.19,21.23c-11.71,23.18-31.98,40.62-56.53,48.33l-0.67,0.19c-15.37,4.76-33.05,7.52-51.35,7.52
	c-1.63,0-3.23-0.02-4.83-0.07h0.23c-31.59,79.17-85.75,143.76-154.49,187.47l-1.58,0.95c-68.21,41.13-150.59,65.47-238.66,65.47
	c-4.64,0-9.24-0.07-13.87-0.21l0.67,0.02c-91.2,0-160.01-27.36-206.44-82.08c-22.23-27.52-39.02-60.45-48.12-96.43l-0.37-1.77
	c-5.55-20.07-8.76-43.13-8.76-66.91c0-12.8,0.93-25.41,2.72-37.72l-0.16,1.39H543.6c1.02,0.02,2.23,0.05,3.44,0.05
	c20.55,0,39.92-5.09,56.92-14.05l-0.67,0.33c-9.66-15.54-15.4-34.4-15.4-54.58c0-3.55,0.19-7.06,0.53-10.52l-0.05,0.44
	c1.14-24.06,8.38-46.24,20.23-65.24l-0.33,0.58l12.45-17.42l17.42,12.45c26.45,17.79,45.15,45.43,50.84,77.55l0.12,0.72
	c9.06-1.44,19.53-2.25,30.17-2.25c7.13,0,14.17,0.37,21.11,1.09l-0.86-0.07c15.03,0.56,28.91,5.11,40.71,12.59l-0.33-0.21
	L779.84,340.09z M146.24,300.33v74.33H63.08v-74.33H146.24z M244.52,300.33v74.33h-83.11v-74.33H244.52z M342.8,300.33v74.33h-83.18
	v-74.33H342.8z M244.49,209.62v75.6h-83.08v-75.6L244.49,209.62z"/>
</svg>
