<?xml version="1.0" encoding="utf-8"?>
<!-- Generator: Adobe Illustrator 27.0.0, SVG Export Plug-In . SVG Version: 6.00 Build 0)  -->
<svg version="1.1" id="Calque_1" xmlns="http://www.w3.org/2000/svg" xmlns:xlink="http://www.w3.org/1999/xlink" x="0px" y="0px"
	 viewBox="0 0 800 800" style="enable-background:new 0 0 800 800;" xml:space="preserve">
<style type="text/css">
	.st0{fill-rule:evenodd;clip-rule:evenodd;fill:#FE705A;}
</style>
<g id="Page-1">
	<g id="Dribbble-Light-Preview" transform="translate(-140.000000, -7559.000000)">
		<g id="icons" transform="translate(56.000000, 160.000000)">
			<path id="github-_x5B__x23_142_x5D_" class="st0" d="M484,7399c220.92,0,400,183.59,400,410.12
				c0,181.17-114.48,334.84-273.32,389.12c-20.28,4.04-27.48-8.75-27.48-19.69c0-13.52,0.48-57.68,0.48-112.56
				c0-38.22-12.8-63.18-27.16-75.92c89.08-10.16,182.68-44.84,182.68-202.36c0-44.79-15.52-81.35-41.2-110.08
				c4.16-10.35,17.88-52.07-3.92-108.55c0,0-33.52-11-109.88,42.05c-31.96-9.08-66.2-13.65-100.2-13.81
				c-34,0.16-68.2,4.73-100.12,13.81c-76.44-53.05-110.04-42.05-110.04-42.05c-21.72,56.48-8,98.2-3.88,108.55
				c-25.56,28.73-41.2,65.29-41.2,110.08c0,157.13,93.4,192.32,182.24,202.7c-11.44,10.23-21.8,28.32-25.4,54.82
				c-22.8,10.49-80.72,28.61-116.4-34.06c0,0-21.16-39.41-61.32-42.29c0,0-39-0.53-2.72,24.92c0,0,26.2,12.6,44.4,60
				c0,0,23.48,73.2,134.76,48.4c0.2,34.28,0.56,66.6,0.56,76.35c0,10.84-7.36,23.54-27.32,19.73
				C198.6,8144.08,84,7990.33,84,7809.12C84,7582.59,263.12,7399,484,7399"/>
		</g>
	</g>
</g>
</svg>
