<?xml version="1.0" encoding="utf-8"?>
<!-- Generator: Adobe Illustrator 27.0.0, SVG Export Plug-In . SVG Version: 6.00 Build 0)  -->
<svg version="1.1" id="Capa_1" xmlns="http://www.w3.org/2000/svg" xmlns:xlink="http://www.w3.org/1999/xlink" x="0px" y="0px"
	 viewBox="0 0 800 800" style="enable-background:new 0 0 800 800;" xml:space="preserve">
<style type="text/css">
	.st0{fill:#FE705A;}
</style>
<g>
	<g>
		<path class="st0" d="M324.68,273.7h-1.19c-6.02,24.23-12.04,55.01-18.73,78.57l-24.18,86.35h90l-25.37-86.35
			C338,328.09,330.75,297.93,324.68,273.7z"/>
		<path class="st0" d="M750.97,0H48.98C21.91,0,0,21.91,0,48.98v702.03C0,778.05,21.91,800,48.98,800h702.03
			c27.03,0,48.98-21.95,48.98-48.98V48.98C800,21.95,778.05,0,750.97,0z M415.29,611.94l-31.44-104.46H267.35l-29.02,104.46h-95.41
			l124.43-406.99h120.73l126.28,406.99H415.29z M654.05,611.94H562.2V316.66h91.85V611.94z M607.58,280.43
			c-28.97,0-48.32-20.58-47.75-45.95c-0.57-26.6,18.78-46.42,48.41-46.42c29.54,0,48.27,19.87,48.84,46.42
			C657.08,259.85,637.78,280.43,607.58,280.43z"/>
	</g>
</g>
</svg>
