<?xml version="1.0" encoding="utf-8"?>
<!-- Generator: Adobe Illustrator 27.0.0, SVG Export Plug-In . SVG Version: 6.00 Build 0)  -->
<svg version="1.1" id="Calque_1" xmlns="http://www.w3.org/2000/svg" xmlns:xlink="http://www.w3.org/1999/xlink" x="0px" y="0px"
	 viewBox="0 0 2500 2500" style="enable-background:new 0 0 2500 2500;" xml:space="preserve">
<style type="text/css">
	.st0{fill-rule:evenodd;clip-rule:evenodd;fill:#FE705A;fill-opacity:0;}
	.st1{fill-rule:evenodd;clip-rule:evenodd;fill:#FE705A;}
</style>
<g>
	<path class="st0" d="M0,0h2500v2500H0V0z"/>
	<path class="st1" d="M2339.6,1469.79c-101.42,472.44-522.84,828.47-1024.87,828.47c-577.35,0-1048.23-470.89-1048.23-1048.24
		c0-577.34,470.88-1048.23,1048.23-1048.23c498.8,0,918.06,351.49,1022.91,819.44c-105.83-497.05-548.8-871.87-1076.62-871.87
		c-606.2,0-1100.64,494.43-1100.64,1100.64c0,606.22,494.43,1100.64,1100.64,1100.64C1792.03,2350.64,2237.23,1971.3,2339.6,1469.79
		L2339.6,1469.79z"/>
	<path class="st1" d="M1138.58,1797.27c60.65-6.25,68.65-70.43,40.08-98.47c-23.53-23.07-153.37-119.46-187.24-157.36
		c-15.72-17.57-37.04-26.21-46.07-45.98c-20.76-45.47-35.32-110.37-8.98-156.96c4.77-8.43,7.83-4.66,4.19,12.89
		c-20.69,99.43,44.06,180.67,58.31,139c9.84-28.78,0.73-80.26,5.98-121.14c9.31-72.35,75.17-211.28,104.1-219.21
		c-44.6-82.64,52.32-147.32,51.14-219.85c-0.79-47.17,41.41,57.99,83.84,80.28c47.37,24.89,99.43-46.92,173.34-83.37
		c20.89-10.31,47.73-22.15,45.93-30.95c-8.69-42.41-97.07,52.32-176.03,55.51c-36.03,1.44-49.4-7.08-63.32-20.52
		c-42.07-40.67,4.29-6.73,66.83-18.04c27.82-5.03,37.16-9.68,66.65-21.59c29.51-11.92,63.23-29.57,96.61-38.64
		c23.23-6.32,21.31-23.77,12.26-29.03c-5.21-3.02-12.92-2.72-19.03,7.83c-14.33,24.77-81.7,39.09-102.69,45.51
		c-27,8.25-56.87,15.97-96.52,14.36c-60.26-2.44-46.21-30.06-89.32-54.78c-12.65-7.25-9.22-26.28,7.56-43.07
		c8.79-8.81,32.92-13.77,44.88-33.8c1.67-2.81,17.08-18.92,29.17-27.28c4.18-2.89,4.54-76.47-33.22-77.99
		c-32.07-1.3-41.19,23.57-39.84,48.35c1.34,24.76,14.46,45.19,23.2,45.1c16.83-0.18,1.08,18.42-8.14,21.41
		c-14.01,4.57-33.2-55.13-31-83.8c2.31-29.86,17.85-82.72,55.64-81.7c34.03,0.92,58.69,43.58,57.44,117.17
		c-0.23,12.48,55.17-5.95,73.67,13.58c13.2,13.97-45.29-130.37,84.99-140.31c34.32,6.56,67.29,17.99,80.98,96.9
		c-5.07,8.21,8.53,63.25-12.65,69.79c-25.86,7.98-41.83-1.15-26.87-25.77c10.23-24.73,0.23-87.64-52.09-83.86
		c-52.33,3.77-45.39,96.62-31.06,98.47c14.36,1.83,50.49,27.47,75.72,32.39c82.76,16.11,21.96,63.56,32.7,121.01
		c12.14,64.87,54.86,47.74,93.27,219.54c8.03,10.47,39.82,20.36,70.83,152.36c27.89,118.73-11.61,205.08,55.45,198
		c15.1-1.6,37.16-5.82,46.76-39.47c25.11-87.92-12.57-192.73-50.58-263.44c-22.14-41.23-43.01-69.3-54.01-78.95
		c43.57,25.76,99.27,108.01,112.12,169.1c16.9,80.23,28.92,114.17,3.4,199.01c14.75,7.37,51.43,22.96,51.43,40.45
		c-38.2-31.41-155.18-36.99-158.19,38.12c-19.96,0.4-35.03,2.02-47.87,17.28c-47.04,55.81-3.37,167.89-8.13,227.98
		c-4.2,52.89-18.87,105.3-27.16,158.43c-27.99-1.06-25.25-21.56-16.26-50.31c7.92-25.36,20.7-57.14,21.53-87.62
		c0.77-27.59-2.26-44.81-9.2-49.09c-6.96-4.28-17.86,4.38-32.9,28.62c-32.13,51.72-101.71,74.47-166.69,82.63
		c-64.98,8.13-125.38,1.67-157.36-34.15c-10.93-12.26-29.07,3.35-31.22,6.59c-2.89,4.36,10.58,12.81,20.74,31.46
		c14.84,27.21,28.94,68.49-6.2,87.34C1199.9,1861.43,1169.57,1855.82,1138.58,1797.27L1138.58,1797.27z M1115.36,1794.74
		c23.28,36.65,105.33,190.98-38.49,211.02c-48.1,6.69-125.55-27.99-200.59-46.35c-67.42-16.48-135.88-26.24-174.21-37.03
		c-23.07-6.46-32.71-14.75-34.72-24.42c-5.32-25.62,28.01-61.53,29.7-91.85s-11.06-46.11-21.5-70.83
		c-10.47-24.82-13.18-43.4-4.81-54.03c6.51-8.26,19.74-11.72,41.27-9.62c27.29,2.71,60.23-2.89,77.94-13.68
		c29.82-18.21,43.84-55.47,30.43-100.39c0,43.95-14.41,60.59-50.53,80.68c-34.05,18.95-86.6,3.62-110.75,24.59
		c-29.07,25.2,10.38,90.33,7.15,138.1c-2.48,36.73-40.8,78.09-23.71,114.93c17.2,37.05,97.38,41.11,180.97,58.57
		c118.83,24.88,188.1,68.14,243,70.17c80.09,2.98,92.36-79.23,218.11-80.35c36.68-1.92,72.55-3.06,108.39-3.51
		c40.61-0.51,81.16-0.18,122.81,0.83c83.69,2.02,54.91,45.69,109.21,73.59c45.82,23.53,128.18,14.24,147.88-4.57
		c26.68-25.43,98.26-86.61,153.11-114.25c68.36-34.45,228.92-93.76,112.37-166.08c-27.16-16.87-91.4-34.68-96.79-157.97
		c-24.32,21.61-21.5,136.48,46.35,159.28c75.8,25.46,123.16,68.09-17.76,116.3c-93.32,31.89-109.15,41.72-183.02,103.2
		c-74.76,62.22-185.65,37.52-166.3-93.47c10.1-68.25,15.91-124.63-1.06-183.96c-8.31-28.95-12.44-66.15-6.76-92.2
		c11.02-50.69,38.46-65.94,65.35-17.28c16.87,30.54,22.8,66.24,83.24,69.15c94.94,4.54,113.74-91.75,144.08-96.13
		c20.25-2.92,40.48-60.22,25.06-152.87c-16.51-99.19-74.87-255.85-149.74-335.29c-62.22-66.02-101.42-123.91-126.1-206.53
		c-20.73-69.41-32.27-136.97-28.01-201.56c5.53-83.69-40.88-200.16-114.78-254.95c-46.25-34.31-118.78-52.68-184.42-51.96
		c-36.83,0.4-71.48,5.77-98.12,20.23c-109.58,59.49-124.89,144.47-123.24,241.46c1.54,91.1,4.64,195.07,14.99,293.97
		c-12.26,45.41-76.05,131.5-116.91,183.89c-54.93,54.27-82.67,159.13-118.21,250.74c-18.96,48.84-50.89,70.91-53.58,133.71
		c-0.75,17.57-0.14,62.99,16.64,50C913.53,1478.32,993.92,1603.59,1115.36,1794.74z M1448.79,481.53
		c-3.45,10.35-17.7,18.97-8.66,26.22c9.04,7.25,14.24-10.13,32.45-16.64c4.71-1.69,26.6,0.7,30.62-9.7
		c1.75-4.54-11.3-9.71-19.05-17.15c-7.78-7.42-15.41-14.02-22.7-13.55C1442.59,451.92,1451.85,472.36,1448.79,481.53z
		 M1560.42,859.31c6.78-7.12,10.29,12.3,28.52,23.8c14.46,9.13,28.52,2.36,32.17,20.84c2.61,13.26-5.65,27.63-16.77,25.76
		C1585.02,926.46,1540.39,880.37,1560.42,859.31z M1259.13,742.73c-30.05-2.24-32.11,19.48-22.17,19.12
		C1247.12,761.48,1240.88,744.66,1259.13,742.73z M1207.59,687.24c3.55-0.78,8.6,5.28,7.03,13.76c-2.18,11.78-1.23,19.16,6.93,19.18
		c1.35,0,2.8-0.26,3.31-3.31c3.92-23.46-8.27-40.69-13.26-41.96C1200.12,671.99,1201.51,688.54,1207.59,687.24L1207.59,687.24z
		 M1426.3,677.32c7.63,2.27,14.97,15.46,16.56,29.71c0.16,1.34,9.96-2.05,10.03-5.16c0.64-22.94-18.97-33.73-24.08-33.27
		C1417,669.67,1420.34,675.53,1426.3,677.32L1426.3,677.32z M1314.17,745.53c27.33-12.67,36.89,6.95,27.46,10.1
		C1332.01,758.86,1331.93,740.91,1314.17,745.53z M984.2,1211.04c-12.92-1.57,3.76-11.27,10.83-23.48
		c7.77-13.44,6.26-30.21,14.44-27.73c8.16,2.48,3.62,11.87-1.97,27.26C1002.72,1200.21,988.96,1211.61,984.2,1211.04z"/>
</g>
</svg>
