<?xml version="1.0" encoding="utf-8"?>
<!-- Generator: Adobe Illustrator 27.0.0, SVG Export Plug-In . SVG Version: 6.00 Build 0)  -->
<svg version="1.1" id="Calque_1" xmlns="http://www.w3.org/2000/svg" xmlns:xlink="http://www.w3.org/1999/xlink" x="0px" y="0px"
	 viewBox="0 0 800 800" style="enable-background:new 0 0 800 800;" xml:space="preserve">
<style type="text/css">
	.st0{fill:#FE705A;}
</style>
<path class="st0" d="M395.52,579.62c0,0,0-259.03,8.6-259c6.65,0,15.3,334.12,15.3,334.12
	C407.53,653.35,395.52,599.77,395.52,579.62L395.52,579.62z M562.23,323.62c-22.98-100.4-73.3-186.72-142.7-253.35l-0.17-0.15
	c-8.45-12.9-16.17-27.7-22.38-43.3l-0.6-1.7c0.02,0.5,0.02,1.1,0.02,1.7c0,14.12-6.33,26.75-16.3,35.22l-0.07,0.05
	c-89.35,75.85-146.2,187.63-148.07,312.7v0.32c-0.03,1.55-0.03,3.38-0.03,5.2c0,123.92,59.62,233.92,151.75,302.87l0.98,0.7
	l2.17,1.58c4.02,29.73,7.45,59.53,10.3,89.4h15.03c4.15-37.27,9.75-69.9,17.08-101.9l-1.15,5.97c9.9-6.88,18.55-14,26.63-21.72
	l-0.08,0.08c70.02-64.92,113.73-157.43,113.73-260.1c0-1.52,0-3.03-0.02-4.55v0.23c-0.08-24.52-2.3-48.5-6.53-71.77l0.38,2.47
	L562.23,323.62z"/>
</svg>
