<?xml version="1.0" encoding="utf-8"?>
<!-- Generator: Adobe Illustrator 27.0.0, SVG Export Plug-In . SVG Version: 6.00 Build 0)  -->
<svg version="1.1" id="Calque_1" xmlns="http://www.w3.org/2000/svg" xmlns:xlink="http://www.w3.org/1999/xlink" x="0px" y="0px"
	 viewBox="0 0 800 800" style="enable-background:new 0 0 800 800;" xml:space="preserve">
<style type="text/css">
	.st0{fill:#FE705A;}
</style>
<path class="st0" d="M750.65,378.47c-2.05-0.15-4.42-0.25-6.83-0.25c-12.1,0-23.67,2.25-34.32,6.35l0.65-0.23
	c-3.12,1.25-8.12,1.25-8.55,5.23c1.73,1.65,1.98,4.38,3.42,6.67c2.92,4.95,6.52,9.15,10.73,12.65l0.08,0.08
	c4.37,3.42,8.75,6.75,13.35,9.67c8.12,5,17.35,7.98,25.3,13c4.52,2.93,9.15,6.65,13.75,9.78c2.27,1.55,3.75,4.37,6.67,5.38v-0.62
	c-1.42-1.88-1.88-4.6-3.28-6.67c-2.1-2.1-4.17-3.98-6.25-6.02c-6.2-8.13-13.38-15.08-21.42-20.87l-0.3-0.2
	c-6.67-4.55-21.3-10.93-24.05-18.6l-0.4-0.45c5.45-0.77,10.3-1.92,14.97-3.48l-0.6,0.18c7.1-1.88,13.6-1.48,20.93-3.3
	c3.3-0.85,6.65-1.87,10-2.92v-1.87c-3.75-3.75-6.55-8.85-10.42-12.35c-10.22-9-21.5-17.45-33.38-25.05l-1.12-0.68
	c-6.55-4.17-14.88-6.87-21.78-10.42c-2.5-1.25-6.67-1.88-8.12-3.98c-3.25-4.62-6.13-9.93-8.4-15.52l-0.2-0.55
	c-6.13-11.9-11.83-24.01-17.1-36.33c-3.6-9.58-7.17-17.42-11.2-25.03l0.58,1.18c-19.65-32.98-47.02-59.47-79.7-77.55l-1.08-0.55
	c-7.72-3.82-16.7-6.8-26.12-8.48l-0.62-0.1c-5.22-0.25-10.42-0.63-15.62-0.85c-3.65-2.35-6.8-4.75-9.75-7.4l0.07,0.07
	c-11.87-7.5-42.6-23.75-51.35-2.25c-5.62,13.55,8.35,26.93,13.18,33.8c3.85,4.58,7.35,9.7,10.38,15.12l0.25,0.5
	c1.48,3.63,1.88,7.35,3.35,11.12c3.62,11.3,7.3,20.57,11.48,29.55l-0.65-1.55c2.48,4.98,5.05,9.2,7.92,13.2l-0.2-0.3
	c1.67,2.27,4.55,3.35,5.23,7.1c-2.15,4.52-3.83,9.77-4.75,15.25l-0.05,0.35c-2.7,8.3-4.27,17.88-4.27,27.8
	c0,15.53,3.82,30.15,10.58,43l-0.25-0.5c3.35,5.17,11.3,16.67,21.95,12.27c9.38-3.75,7.3-15.62,10-26.07
	c0.62-2.5,0.23-4.15,1.5-5.85v0.48c2.92,5.87,5.88,11.47,8.55,17.35c7.55,10.88,16.52,20.12,26.77,27.75l0.33,0.23
	c5,3.75,8.97,10.25,15.22,12.55v-0.62h-0.47c-1.42-1.55-3-2.93-4.72-4.1l-0.1-0.05c-3.88-3.8-7.48-7.9-10.73-12.23l-0.2-0.27
	c-8.15-11-15.9-23.45-22.62-36.52l-0.72-1.52c-3.42-6.55-6.3-13.62-9.05-20.1c-1.25-2.5-1.25-6.25-3.35-7.5
	c-3.7,4.15-7.03,8.77-9.8,13.75l-0.2,0.4c-3.2,9.33-5.3,20.1-5.85,31.28v0.27c-0.85,0.22-0.42,0-0.85,0.45
	c-6.68-1.62-8.98-8.55-11.48-14.38c-3.4-9.15-5.38-19.75-5.38-30.77c0-8.9,1.28-17.5,3.67-25.62l-0.15,0.65
	c1.48-4.38,7.73-18.18,5.23-22.38c-1.3-3.98-5.42-6.25-7.73-9.47c-2.72-3.85-5.22-8.23-7.3-12.85l-0.2-0.5
	c-5-11.68-7.5-24.62-12.93-36.3c-3.28-6.1-6.73-11.35-10.6-16.25l0.17,0.22c-4.12-4.77-7.92-10.1-11.22-15.75l-0.27-0.5
	c-1.02-2.27-2.5-6.05-0.85-8.55c0.3-1.45,1.45-2.57,2.93-2.8h0.02c2.75-2.25,10.48,0.67,13.17,1.93c7.92,3,14.75,6.52,21.08,10.68
	l-0.4-0.25c2.93,2.05,6.1,6.03,9.85,7.05H529c6.67,1.48,14.22,0.45,20.47,2.28c11.48,3.88,21.4,8.72,30.58,14.67l-0.52-0.32
	c27.6,17.82,49.7,41.92,64.65,70.4l0.5,1.02c2.5,4.8,3.6,9.23,5.88,14.23c4.37,10.3,9.78,20.73,14.22,30.68
	c4.23,10.7,9.22,19.95,15.18,28.48l-0.3-0.45c3.12,4.38,15.67,6.65,21.3,8.93c5.92,2.08,10.67,4.05,15.27,6.28l-0.92-0.4
	c7.17,4.38,14.17,9.38,20.92,14.17c3.42,2.38,13.85,7.6,14.48,11.8L750.65,378.47z M457.55,561.3c0,0.38,0.02,0.8,0.02,1.22
	c0,13.95-6.23,26.42-16.07,34.83l-0.08,0.05c-10.8,8.8-24.73,14.15-39.9,14.15c-1.18,0-2.35-0.02-3.5-0.1h0.15
	c-18.48-0.25-35.48-6.25-49.4-16.28l0.25,0.17l7.4-14.88c10.73,6,23.48,9.73,37.02,10.25h0.15c0.68,0.05,1.45,0.08,2.25,0.08
	c8.3,0,16.03-2.6,22.35-7.03l-0.12,0.08c5.73-4.35,9.38-11.15,9.38-18.8c0-0.15,0-0.28,0-0.43v0.03c0-10.3-7.18-19.05-20.25-26.4
	c-12.12-6.65-36.33-20.52-36.33-20.52c-11.95-7.4-19.77-20.42-19.77-35.27c0-0.53,0-1.05,0.02-1.58v0.08
	c-0.02-0.47-0.02-1.02-0.02-1.57c0-12.88,5.68-24.42,14.65-32.28l0.05-0.05c9.55-8.1,22.02-13.02,35.65-13.02
	c0.88,0,1.73,0.02,2.58,0.05h-0.12c0.23,0,0.5,0,0.78,0c15.97,0,30.85,4.77,43.25,13l-0.3-0.17l-6.65,14.87
	c-9.78-4.4-21.18-7.05-33.17-7.17h-0.05c-0.6-0.05-1.28-0.08-1.98-0.08c-7,0-13.45,2.45-18.5,6.55l0.05-0.05
	c-4.73,3.92-7.73,9.8-7.75,16.38l0,0c0,10.25,7.3,19.05,20.8,26.55c12.27,6.72,37.07,20.92,37.07,20.92
	c12.2,7.18,20.28,20.23,20.28,35.17c0,0.45,0,0.93-0.02,1.38v-0.08L457.55,561.3z M509.35,574.58c-6.83-13.62-10.8-29.68-10.8-46.65
	c0-2.67,0.1-5.32,0.3-7.92l-0.02,0.35c0-43.52,13.22-65.28,39.67-65.3c0.65-0.05,1.42-0.07,2.23-0.07c11.88,0,22.3,6.2,28.22,15.55
	l0.08,0.12c6.78,13.55,10.75,29.55,10.75,46.45c0,2.6-0.1,5.18-0.27,7.73l0.02-0.35c0,43.87-13.22,65.82-39.67,65.85
	c-0.67,0.05-1.45,0.08-2.23,0.08c-11.88,0-22.32-6.2-28.25-15.55l-0.08-0.12L509.35,574.58z M612.2,613.38l-31.75-15.62
	c2.9-2.42,5.5-4.97,7.9-7.73l0.07-0.08c12.83-17.3,20.53-39.07,20.53-62.62c0-2.72-0.1-5.42-0.3-8.1l0.02,0.35
	c0-57.17-22.44-85.77-67.33-85.8c-1-0.05-2.17-0.08-3.35-0.08c-19.17,0-36.4,8.42-48.12,21.8l-0.05,0.08
	c-12.77,17.3-20.45,39.05-20.45,62.6c0,2.65,0.1,5.28,0.3,7.88l-0.02-0.35c-0.23,2.52-0.35,5.47-0.35,8.45
	c0,21.85,6.85,42.1,18.5,58.73l-0.23-0.33c11.22,11.95,27.15,19.4,44.77,19.4c1.65,0,3.28-0.08,4.88-0.2l-0.23,0.03
	c0.23,0,0.53,0,0.8,0c7.78,0,15.3-1.12,22.42-3.2l-0.55,0.15l41.4,24.12l11.25-19.43L612.2,613.38z M715.9,609.15h-82.17V436.4
	h27.65v151.52h54.53V609.15z M330.88,481.7c-7.17,52.1-23.6,99.13-47.62,141.25l1-1.92c-9.62,18.53-27.83,31.42-49.2,33.5
	l-0.25,0.03c-6.48-0.35-12.5-1.9-17.98-4.42l0.3,0.12v-15.42c3.43,0.52,7.38,0.83,11.4,0.83c0.22,0,0.45,0,0.7,0h-0.03
	c0.4,0.02,0.85,0.02,1.3,0.02c7.22,0,13.85-2.62,18.95-7l-0.05,0.02c5.5-4.52,9.02-11.27,9.23-18.87v-0.03
	c-1.33-10.95-3.85-20.92-7.47-30.35l0.3,0.85l-31.68-98.6h28.43l22.73,73.73c4.05,10.4,6.4,22.45,6.4,35.02c0,0.02,0,0.05,0,0.05
	l0,0c12.05-31.55,21.2-68.35,25.85-106.53l0.23-2.3L330.88,481.7z M205.38,609.15h-28.95c-0.82-46.02-3.62-91.94-8.43-137.77h-0.25
	L123.7,609.15h-22.03L57.92,471.37h-0.3c-3.42,45.85-5.45,91.77-6.1,137.77h-26.4c1.72-61.42,5.98-119.01,12.8-172.77h35.92
	l41.7,126.97h0.25l42.07-126.97h34.2c7.57,62.95,12.03,120.54,13.38,172.77H205.38z M537.62,196.97c-0.05,0-0.12,0-0.2,0
	c-2.97,0-5.85,0.38-8.6,1.08l0.25-0.05v0.4h0.42c2.15,3.2,4.35,5.98,6.72,8.57l-0.05-0.05c1.67,3.35,3.12,6.68,4.8,10l0.42-0.47
	c2.72-2.15,4.45-5.45,4.45-9.15c0-0.45-0.02-0.88-0.07-1.33v0.05c-1.25-1.48-1.42-2.93-2.5-4.38c-1.25-2.1-3.92-3.12-5.62-4.77
	L537.62,196.97z"/>
</svg>
