<?xml version="1.0" encoding="utf-8"?>
<!-- Generator: Adobe Illustrator 27.0.0, SVG Export Plug-In . SVG Version: 6.00 Build 0)  -->
<svg version="1.1" id="Calque_1" xmlns="http://www.w3.org/2000/svg" xmlns:xlink="http://www.w3.org/1999/xlink" x="0px" y="0px"
	 viewBox="0 0 400 400" style="enable-background:new 0 0 400 400;" xml:space="preserve">
<style type="text/css">
	.st0{fill:#FE705A;}
</style>
<g transform="translate(0.000000,400.000000) scale(0.100000,-0.100000)">
	<path class="st0" d="M864,3523c-38-43-71-80-74-83c-5-5-106-120-171-195c-15-16-74-84-133-150c-87-99-105-124-101-145
		c3-14,70-419,150-900s148-887,151-903l6-27h154h154v-60v-60h139h139l18-120c9-66,21-124,24-131c8-11,1079-390,1089-385
		s1206,718,1208,720s-83,166-187,367c-104,200-190,367-190,372c0,4,68,78,152,165c84,86,169,175,190,197l38,40l-134,315
		c-73,173-166,403-206,510c-41,107-76,198-79,202s-189,41-413,83l-407,77l-34-29c-19-15-77-67-129-115c-53-49-98-88-101-88
		c-4,0-18,39-33,88c-14,48-27,88-28,89c0,0-244,53-541,118c-297,64-549,118-561,121C938,3600,918,3584,864,3523z M2361,2730
		c79-24,163-75,153-93c-30-50-87-128-92-125c-4,2-38,18-75,37c-55,28-80,34-132,35c-54,1-67-3-89-23c-42-40-33-82,23-110
		c20-10,78-30,129-45c173-49,240-100,262-198c27-119-24-224-132-277c-140-68-335-44-480,61l-48,34l56,66l56,67l40-29
		c145-105,352-88,324,26c-9,34-37,49-161,85c-167,48-237,91-264,162c-18,46-13,157,8,203c23,52,93,111,151,129
		C2158,2756,2286,2754,2361,2730z M1677,2711c111-49,170-154,161-282c-7-90-39-152-103-201c-65-49-138-68-263-68h-102v-125v-125h-95
		h-95v416v415l223-3C1611,2735,1628,2734,1677,2711z M1938,1313l3-63h-381h-380v58c0,32,3,62,7,65c4,4,173,6,377,5l371-3L1938,1313z
		"/>
	<path class="st0" d="M1370,2445v-125h73c140,1,195,30,204,111c6,58-9,94-49,119c-27,16-51,20-130,20h-98V2445z"/>
</g>
</svg>
