<?xml version="1.0" encoding="utf-8"?>
<!-- Generator: Adobe Illustrator 27.0.0, SVG Export Plug-In . SVG Version: 6.00 Build 0)  -->
<svg version="1.1" id="Calque_1" xmlns="http://www.w3.org/2000/svg" xmlns:xlink="http://www.w3.org/1999/xlink" x="0px" y="0px"
	 viewBox="0 0 1280 1280" style="enable-background:new 0 0 1280 1280;" xml:space="preserve">
<style type="text/css">
	.st0{fill:#FE705A;}
</style>
<g transform="translate(0.000000,1280.000000) scale(0.100000,-0.100000)">
	<path class="st0" d="M438,12766c-222-112-370-307-422-559c-14-69-16-621-16-5779C0,2533,3,705,11,661c24-151,97-296,206-412
		C322,138,424,78,605,18C638,7,1682,5,6380,2c3946-2,5756,1,5803,8c247,38,471,200,583,421l34,69v5926v5927l-42,81
		c-58,109-199,252-313,316l-80,45l-5930,2l-5930,2L438,12766z M4675,10380c621-40,1101-158,1468-361c583-324,942-862,1032-1543
		c19-151,20-452,0-620c-113-964-659-1603-1640-1916c-423-135-999-199-1536-171c-129,6-249,14-266,18l-33,5V4526V3260h-795h-795
		l2,3493l3,3492l140,21c339,52,845,96,1310,113C3883,10391,4495,10391,4675,10380z M9845,8495c341-33,598-87,859-179
		c102-37,236-93,236-99c-1-12-280-1090-283-1093c-2-2-47,16-101,41c-163,77-308,128-492,174c-201,51-309,65-514,65
		c-157,0-196-4-261-22c-161-44-266-120-317-230c-24-50-27-70-27-157c0-117,17-163,87-234c111-112,291-201,733-361
		c460-167,728-316,966-539c291-271,447-682,425-1121c-34-697-449-1199-1191-1439c-306-99-621-143-1030-143c-482-1-923,68-1315,204
		c-144,50-340,142-340,160c0,11,271,1118,276,1126c1,2,67-28,146-66c301-148,704-266,1027-303c132-15,400-6,501,16
		c179,40,313,136,359,260c25,68,31,192,11,266c-26,98-111,189-248,266c-87,49-232,108-482,198c-414,148-656,270-885,443
		c-252,192-437,435-519,684c-92,276-86,617,16,922c214,638,854,1078,1698,1165C9319,8513,9682,8511,9845,8495z"/>
	<path class="st0" d="M4060,9174c-160-17-240-27-270-34c-19-4-47-11-62-14l-28-6V8076V7032l23-5c147-36,633-44,827-14
		c175,28,345,79,470,142c148,74,322,221,406,345c165,239,228,620,153,920c-15,61-55,173-75,213c-97,189-277,347-496,436
		c-211,85-317,103-648,106C4214,9177,4079,9176,4060,9174z"/>
</g>
</svg>
