<?xml version="1.0" encoding="utf-8"?>
<!-- Generator: Adobe Illustrator 27.0.0, SVG Export Plug-In . SVG Version: 6.00 Build 0)  -->
<svg version="1.1" id="Calque_1" xmlns="http://www.w3.org/2000/svg" xmlns:xlink="http://www.w3.org/1999/xlink" x="0px" y="0px"
	 viewBox="0 0 1417.32 1133.86" style="enable-background:new 0 0 1417.32 1133.86;" xml:space="preserve">
<style type="text/css">
	.st0{fill:#FE705A;}
</style>
<g>
	<path class="st0" d="M1270.64,842.96c-1.43-1.49-1.05-3.37-1.1-5.15c-0.7-23.58-9.88-43.9-25.83-60.6
		c-21.61-22.63-45.01-43.5-67.55-65.22c-34.6-33.33-70.02-65.81-103.8-100c-6.06-6.15-8.63-13.06-8.54-21.58
		c0.21-20.39,0.23-40.8,0-61.19c-0.1-8.97,2.86-16.15,9.19-22.47c12.1-12.09,23.65-24.72,35.47-37.07
		c37.25-38.91,74.64-77.7,111.69-116.8c27.09-28.59,46.38-61.22,48.65-102.01c0.34-5.98-0.75-12.33,1.82-18.17
		c0-15.31,0-30.62,0-45.93c-2-2.6-0.94-5.6-1.06-8.42c-1.11-26.17-7.19-50.83-21.13-73.37c-6.14-9.92-12.37-19.76-19.99-28.54
		c-32.02-36.91-69.1-65.12-120.1-69.49c-4.92-0.42-10.18,0.83-14.89-1.73c-18.96,0-37.91,0-56.87,0c-0.84,0.76-1.83,1.1-2.96,1.08
		c-38.55-0.57-71.05,14.8-100.1,38.61c-23.64,19.39-45.15,41.18-67.8,61.69c-35.32,32-70.14,64.56-105.51,96.51
		c-6.63,5.99-13.68,9.02-22.61,8.93c-22.95-0.23-45.9-0.26-68.84,0.01c-9.37,0.11-16.81-2.93-23.44-9.53
		c-14.46-14.38-28.04-29.59-42.24-44.2c-33-33.95-66.65-67.27-100.35-100.53c-18.86-18.6-41.05-32.31-65.36-42.91
		c-16.93-7.38-35.08-6.48-52.61-9.66c-18.96,0-37.91,0-56.87,0c-23.21,2.92-46.36,4.7-67.85,16.47
		c-25.01,13.68-47.25,30.42-65.51,52.01c-19.22,22.73-34.88,48.08-40.92,77.57c-5.85,28.56-4.91,57.84-3.52,86.83
		c0.81,16.83,2.13,33.75,8.74,49.92c16.17,39.55,41.24,71.77,76.09,96.47c35.08,24.87,70.44,49.33,105.72,73.91
		c7.71,5.37,12.5,11.77,12.47,21.6c-0.1,27.7,0.05,55.4-0.08,83.1c-0.03,7.23-2.01,13.66-7.54,18.67
		c-33.48,30.3-66.96,60.61-100.23,91.14c-23.34,21.41-47.13,42.65-63.19,70.59c-14.02,24.39-27.13,49.2-30.16,77.9
		c-2.91,27.61-3.23,55.36-1.94,82.98c0.88,18.88,1.78,37.92,8.37,56.31c15.25,42.57,40.27,78.29,74.02,107.88
		c34.86,30.55,75.41,49.77,121.56,55.11c25.62,2.96,51.5,2.96,77.43,1.71c43.5-2.11,80.73-16.05,109.09-50.48
		c6.7-8.13,13.87-15.93,21.02-23.71c34.51-37.54,68.07-75.93,101.96-114.02c9.14-10.27,18.66-14.63,32.12-14.6
		c114.45,0.29,228.9,0.29,343.35,0c13.28-0.04,23.71,4.13,33.59,12.8c24.09,21.13,48.3,42.16,74.03,61.34
		c5.07,3.78,10.18,6.89,16.99,5.91c40.58-5.87,101.37-46.04,105.8-103.13c0.27-3.51-0.97-7.32,1.32-10.61
		C1270.64,873.58,1270.64,858.27,1270.64,842.96z M655.05,818.77c-69.62,0.2-139.25,0.08-208.88,0.04
		c-14.47-0.01-15.14-0.54-15-14.55c0.32-33.27-4.34-28.5,27.98-28.74c33.18-0.24,66.35-0.05,99.53-0.04
		c37.18,0,74.37,0.25,111.54-0.16c10.05-0.11,14.53,2.62,14.26,13.5C683.65,823.37,688.37,818.67,655.05,818.77z M700.11,320.72
		c-27.43,42.58-54.61,85.32-81.87,128.01c-4.31,6.76-7.93,14.11-13.07,20.16c-13.41,15.8-16.32,33.82-15.43,53.94
		c1.17,26.55-0.01,53.21,0.44,79.81c0.16,9.6-3.42,12.97-12.82,12.59c-13.46-0.54-26.98-0.5-40.45-0.02
		c-9.13,0.33-12.24-3.46-12.02-12.29c0.43-16.73,0.14-33.5,0.13-50.27c-0.01-12.03-0.84-24.13,0.2-36.07
		c1.37-15.81-3.77-28.81-12.23-41.84c-32.94-50.73-65.24-101.88-97.7-152.92c-1.64-2.58-5.24-5.17-2.86-8.62
		c1.78-2.57,5.4-1.56,8.24-1.57c17.49-0.06,35,0.3,52.48-0.17c8.46-0.23,13.28,3.4,17.4,10.41c19.91,33.95,40.17,67.68,60.35,101.47
		c6.66,11.16,7.59,11.07,14.55-0.46c20.34-33.69,40.94-67.23,60.9-101.15c4.52-7.68,9.9-10.52,18.5-10.28
		c16.75,0.46,33.53,0.34,50.29,0.05C703.57,311.36,704.66,313.66,700.11,320.72z M970.67,357.6c0.46,9.37-2.97,13.08-12.57,12.86
		c-20.75-0.47-41.52-0.15-62.27-0.13c-18.98,0.01-19,0.02-19,19.57c-0.01,68.1,0,136.21-0.01,204.31c0,18.98-0.02,18.98-19.48,18.99
		c-10.2,0.01-20.42-0.44-30.59,0.11c-9.97,0.54-13.48-3.46-13.38-13.37c0.37-37.87,0.14-75.75,0.14-113.63
		c0-34.23-0.23-68.47,0.13-102.7c0.11-9.88-3.42-13.64-13.4-13.43c-22.57,0.48-45.16-0.14-67.74,0.26
		c-9.21,0.16-13.44-2.82-12.98-12.53c0.54-11.26,0.54-22.59,0-33.86c-0.46-9.66,3.66-12.67,12.92-12.59
		c37.54,0.34,75.05,0.16,112.56,0.15c37.51,0,75.03,0.25,112.54-0.17c10.07-0.11,13.72,3.48,13.15,13.4
		C970.07,335.73,970.13,346.7,970.67,357.6z"/>
</g>
</svg>
